# xmcd
#
# Track frame offsets:
#	150
#	1685
#	21722
#	39817
#	56500
#	77927
#	95820
#	110325
#	138992
#	152280
#	161430
#	169982
#	198792
#	215402
#
# Disc length: 3100 seconds
#
# Revision: 0
# Processed by: cddbd v1.5.2PL0 Copyright (c) Steve Scherf et al.
# Submitted via: dBpowerAMP V4.0
#
DISCID=ab0c1a0e
DTITLE=Various Artist - Society Within
DYEAR=1900
DGENRE=Dance
TTITLE0=Diane Moses - Intro
TTITLE1=London Posse - How's Life In London
TTITLE2=Jamelia - I Do
TTITLE3=Nine Yards - Always Find A Way
TTITLE4=LSK - Hate Or Love
TTITLE5=Mark B and Blade - Split Personalities feat Tariq
TTITLE6=Lynden david Hall - Forgive Me
TTITLE7=Ebony and Ivory - Nuff Respect
TTITLE8=Iceberg Slim - Nursery Rhymes (Part II)
TTITLE9=Glamma Kid - Power Supply
TTITLE10=Curtis Lynch JNR - Ghetto Youth
TTITLE11=Jhelisa - Friendly Pressure
TTITLE12=MC Neat and DJ Luck - Master Blaster
TTITLE13=Okey Bad Manner - All Right
EXTD=
EXTT0=
EXTT1=
EXTT2=
EXTT3=
EXTT4=
EXTT5=
EXTT6=
EXTT7=
EXTT8=
EXTT9=
EXTT10=
EXTT11=
EXTT12=
EXTT13=
PLAYORDER=
